<!DOCTYPE svg PUBLIC "-//W3C//DTD SVG 1.1//EN" "http://www.w3.org/Graphics/SVG/1.1/DTD/svg11.dtd">
<!-- Uploaded to: SVG Repo, www.svgrepo.com, Transformed by: SVG Repo Mixer Tools -->
<svg height="800px" width="800px" version="1.1" id="Capa_1" xmlns="http://www.w3.org/2000/svg" xmlns:xlink="http://www.w3.org/1999/xlink" viewBox="0 0 286.976 286.976" xml:space="preserve" fill="#4ea5dd" transform="rotate(90)">
<g id="SVGRepo_bgCarrier" stroke-width="0"/>
<g id="SVGRepo_tracerCarrier" stroke-linecap="round" stroke-linejoin="round"/>
<g id="SVGRepo_iconCarrier"> <g> <g> <path style="fill:#4ea5dd;" d="M16.23,209.719c0.038,0.082,0.103,0.141,0.147,0.218c24.008,45.748,71.959,77.039,127.111,77.039 c55.087,0,102.989-31.22,127.029-76.876c0.082-0.141,0.218-0.234,0.288-0.381c0.054-0.114,0.044-0.234,0.087-0.348 c10.253-19.744,16.083-42.136,16.083-65.883C286.976,64.366,222.61,0,143.488,0S0,64.366,0,143.488 c0,23.829,5.874,46.303,16.198,66.101C16.214,209.632,16.208,209.676,16.23,209.719z M143.488,276.098 c-48.979,0-91.811-26.711-114.775-66.313l114.775-54.82l114.786,54.799C235.316,249.376,192.478,276.098,143.488,276.098z M276.098,143.488c0,20.255-4.58,39.46-12.738,56.648l-110.968-52.976l86.182-95.978 C261.771,75.081,276.098,107.634,276.098,143.488z M148.927,134.742V11.014c31.231,1.267,59.699,13.386,81.755,32.683 L148.927,134.742z M138.049,11.014v134.492L23.627,200.158c-8.164-17.193-12.749-36.404-12.749-56.67 C10.878,72.193,67.444,13.88,138.049,11.014z"/> </g> </g> </g>
</svg>